<svg width="512" height="512" viewBox="0 0 512 512" fill="none" xmlns="http://www.w3.org/2000/svg">
<rect width="512" height="512" rx="92" fill="white"/>
<path fill-rule="evenodd" clip-rule="evenodd" d="M100 177.041C100 138.367 100 119.029 112.015 107.015C124.029 95 143.367 95 182.041 95H320.019C358.694 95 378.031 95 390.045 107.015C402.06 119.029 402.06 138.367 402.06 177.041V236.707H339.485H164.216V251.624V311.29C164.216 324.677 175.068 335.529 188.455 335.529H315.246C328.633 335.529 339.485 324.677 339.485 311.29V251.624H402.06V315.019C402.06 353.694 402.06 373.031 390.045 385.045C378.031 397.06 358.694 397.06 320.019 397.06H182.041C143.367 397.06 124.029 397.06 112.015 385.045C100 373.031 100 353.694 100 315.019V177.041Z" fill="#FF7300"/>
<path fill-rule="evenodd" clip-rule="evenodd" d="M298.891 274.645C295.424 275.634 294.436 276.235 291.118 284.254L286.457 296.373C286.457 296.373 285.524 299.17 288.321 302.899L400.492 455.781L400.492 455.782C406.277 463.821 409.169 467.841 413.106 467.744C417.042 467.648 419.734 463.491 425.119 455.178L458.658 403.398C462.316 397.751 462.28 395.332 461.726 392.399C461.172 389.466 460.306 387.098 454.84 383.173L312.931 281.25C305.883 276.187 302.359 273.656 298.891 274.645ZM434.464 382.086C431.2 379.547 426.494 380.148 423.974 383.425L394.962 421.141C392.803 423.947 392.915 427.884 395.229 430.563L402.479 438.959C405.726 442.718 411.67 442.313 414.377 438.148L441.592 396.279C443.704 393.031 442.976 388.706 439.918 386.327L434.464 382.086Z" fill="#FF7300"/>
</svg>
