<svg width="1700" height="700" viewBox="0 0 1700 700" fill="none" xmlns="http://www.w3.org/2000/svg">
<path d="M619.239 414.907H618.009C577.441 414.907 552.444 407.94 543.019 394.008C538.511 387.451 534.823 381.099 531.955 374.953C529.496 368.806 527.857 359.176 527.037 346.063C524.988 322.295 523.964 295.864 523.964 266.77C523.964 237.675 524.169 216.776 524.578 204.073C524.988 190.959 526.218 177.846 528.266 164.733C530.725 151.21 533.799 141.58 537.487 135.843C541.175 129.697 546.707 124.165 554.083 119.247C561.459 114.33 570.064 111.256 579.899 110.027C589.734 108.388 602.437 107.568 618.009 107.568H619.239V414.907ZM690.541 317.788C717.997 317.788 738.896 317.788 753.238 317.788C767.581 317.788 774.957 317.993 775.366 318.402C775.776 318.402 776.391 318.607 777.21 319.017C778.44 319.017 779.259 319.222 779.669 319.632C780.079 320.042 780.489 320.656 780.899 321.476C781.308 321.886 781.513 322.705 781.513 323.935C782.333 326.803 782.743 329.057 782.743 330.696V349.136C782.743 392.983 760.409 414.907 715.743 414.907H638.294V368.806H671.486C680.092 368.806 685.419 367.577 687.468 365.118C689.517 362.249 690.541 357.332 690.541 350.366V317.788ZM638.294 107.568H715.743C760.409 107.568 782.743 129.492 782.743 173.339V215.137C755.287 215.137 734.388 215.137 720.046 215.137C705.703 215.137 698.327 215.137 697.917 215.137C697.507 214.727 696.688 214.522 695.459 214.522C694.639 214.112 694.024 213.703 693.615 213.293C693.205 212.883 692.795 212.473 692.385 212.063C691.975 211.244 691.77 210.424 691.77 209.605C690.951 206.326 690.541 203.868 690.541 202.229V172.109C690.541 165.143 689.517 160.431 687.468 157.972C685.419 155.103 680.092 153.669 671.486 153.669H638.294V107.568Z" fill="white"/>
<path d="M190.286 107.568H260.359C266.915 107.568 272.243 109.822 276.34 114.33C280.438 118.837 282.487 124.779 282.487 132.155V350.366C282.487 356.922 283.921 361.635 286.79 364.503C290.068 367.372 297.034 368.806 307.689 368.806H343.34V414.907H257.285C212.619 414.907 190.286 392.983 190.286 349.136V107.568ZM478.569 410.604C478.569 413.472 477.544 414.907 475.496 414.907H413.413C395.383 414.907 381.655 410.604 372.23 401.998C363.215 392.983 358.707 381.509 358.707 367.577V107.568H428.78C435.337 107.568 440.664 109.822 444.762 114.33C448.86 118.837 450.909 124.779 450.909 132.155V345.448C450.909 358.152 453.572 365.323 458.899 366.962C461.768 368.191 465.661 368.806 470.578 368.806H473.652C476.93 368.806 478.569 370.24 478.569 373.109V410.604Z" fill="white"/>
<path d="M66.9998 107.568H140.761C143.22 107.568 144.449 109.003 144.449 111.871V149.366C144.449 152.235 142.81 153.669 139.532 153.669H111.871C102.036 153.669 96.2993 155.513 94.6602 159.201C93.0211 164.528 92.2015 170.47 92.2015 177.027V367.577C92.2015 381.509 87.489 392.983 78.0639 401.998C69.0487 410.604 55.5258 414.907 37.4953 414.907H0V175.797C0 151.62 5.3272 134.204 15.9816 123.55C27.0458 112.896 44.0518 107.568 66.9998 107.568Z" fill="white"/>
<path fill-rule="evenodd" clip-rule="evenodd" d="M846.615 112.691C846.615 59.5678 846.615 33.0063 863.118 16.5032C879.621 0 906.183 0 959.305 0H1148.83C1201.95 0 1228.52 0 1245.02 16.5032C1261.52 33.0063 1261.52 59.5678 1261.52 112.691V194.648H1175.57H934.821V215.137V297.094C934.821 315.482 949.727 330.389 968.116 330.389H1142.27C1160.66 330.389 1175.57 315.482 1175.57 297.094V215.137H1261.52V302.216C1261.52 355.339 1261.52 381.9 1245.02 398.404C1228.52 414.907 1201.95 414.907 1148.83 414.907H959.305C906.183 414.907 879.621 414.907 863.118 398.404C846.615 381.9 846.615 355.339 846.615 302.216V112.691Z" fill="white"/>
<path fill-rule="evenodd" clip-rule="evenodd" d="M1119.81 246.758C1115.05 248.117 1113.69 248.943 1109.13 259.957L1102.73 276.604C1102.73 276.604 1101.45 280.446 1105.29 285.568L1259.37 495.566L1259.37 495.566C1267.31 506.609 1271.29 512.13 1276.69 511.998C1282.1 511.865 1285.8 506.156 1293.19 494.737L1339.26 423.612C1344.29 415.855 1344.24 412.532 1343.48 408.504C1342.72 404.475 1341.53 401.223 1334.02 395.832L1139.1 255.831C1129.41 248.877 1124.57 245.4 1119.81 246.758ZM1306.03 394.338C1301.55 390.851 1295.08 391.677 1291.62 396.178L1251.77 447.984C1248.81 451.838 1248.96 457.246 1252.14 460.926L1262.1 472.458C1266.56 477.621 1274.72 477.065 1278.44 471.345L1315.82 413.834C1318.72 409.372 1317.72 403.432 1313.52 400.164L1306.03 394.338Z" fill="white"/>
</svg>
