<svg width="525" height="200" viewBox="0 0 525 200" fill="none" xmlns="http://www.w3.org/2000/svg">
<path fill-rule="evenodd" clip-rule="evenodd" d="M330.56 44C330.56 23.2582 330.56 12.8873 337.004 6.44365C343.447 0 353.818 0 374.56 0H448.56C469.302 0 479.673 0 486.116 6.44365C492.56 12.8873 492.56 23.2582 492.56 44V76H459H365V84V116C365 123.18 370.82 129 378 129H446C453.18 129 459 123.18 459 116V84H492.56V118C492.56 138.742 492.56 149.113 486.116 155.556C479.673 162 469.302 162 448.56 162H374.56C353.818 162 343.447 162 337.004 155.556C330.56 149.113 330.56 138.742 330.56 118V44Z" fill="#FF7300"/>
<path d="M241.781 162H241.301C225.461 162 215.701 159.28 212.021 153.84C210.261 151.28 208.821 148.8 207.701 146.4C206.741 144 206.101 140.24 205.781 135.12C204.981 125.84 204.581 115.52 204.581 104.16C204.581 92.8 204.661 84.64 204.821 79.68C204.981 74.56 205.461 69.44 206.261 64.32C207.221 59.04 208.421 55.28 209.861 53.04C211.301 50.64 213.461 48.48 216.341 46.56C219.221 44.64 222.581 43.44 226.421 42.96C230.261 42.32 235.221 42 241.301 42H241.781V162ZM269.621 124.08C280.341 124.08 288.501 124.08 294.101 124.08C299.701 124.08 302.581 124.16 302.741 124.32C302.901 124.32 303.141 124.4 303.461 124.56C303.941 124.56 304.261 124.64 304.421 124.8C304.581 124.96 304.741 125.2 304.901 125.52C305.061 125.68 305.141 126 305.141 126.48C305.461 127.6 305.621 128.48 305.621 129.12V136.32C305.621 153.44 296.901 162 279.461 162H249.221V144H262.181C265.541 144 267.621 143.52 268.421 142.56C269.221 141.44 269.621 139.52 269.621 136.8V124.08ZM249.221 42H279.461C296.901 42 305.621 50.56 305.621 67.68V84C294.901 84 286.741 84 281.141 84C275.541 84 272.661 84 272.501 84C272.341 83.84 272.021 83.76 271.541 83.76C271.221 83.6 270.981 83.44 270.821 83.28C270.661 83.12 270.501 82.96 270.341 82.8C270.181 82.48 270.101 82.16 270.101 81.84C269.781 80.56 269.621 79.6 269.621 78.96V67.2C269.621 64.48 269.221 62.64 268.421 61.68C267.621 60.56 265.541 60 262.181 60H249.221V42Z" fill="#FF7300"/>
<path d="M74.2969 42H101.657C104.217 42 106.297 42.88 107.897 44.64C109.497 46.4 110.297 48.72 110.297 51.6V136.8C110.297 139.36 110.857 141.2 111.977 142.32C113.257 143.44 115.977 144 120.137 144H134.057V162H100.457C83.0169 162 74.2969 153.44 74.2969 136.32V42ZM186.857 160.32C186.857 161.44 186.457 162 185.657 162H161.417C154.377 162 149.017 160.32 145.337 156.96C141.817 153.44 140.057 148.96 140.057 143.52V42H167.417C169.977 42 172.057 42.88 173.657 44.64C175.257 46.4 176.057 48.72 176.057 51.6V134.88C176.057 139.84 177.097 142.64 179.177 143.28C180.297 143.76 181.817 144 183.737 144H184.937C186.217 144 186.857 144.56 186.857 145.68V160.32Z" fill="#FF7300"/>
<path d="M26.16 42H54.96C55.92 42 56.4 42.56 56.4 43.68V58.32C56.4 59.44 55.76 60 54.48 60H43.68C39.84 60 37.6 60.72 36.96 62.16C36.32 64.24 36 66.56 36 69.12V143.52C36 148.96 34.16 153.44 30.48 156.96C26.96 160.32 21.68 162 14.64 162H0V68.64C0 59.2 2.08 52.4 6.24 48.24C10.56 44.08 17.2 42 26.16 42Z" fill="#FF7300"/>
<path fill-rule="evenodd" clip-rule="evenodd" d="M437.229 96.3466C435.369 96.877 434.84 97.1995 433.06 101.5L430.56 108C430.56 108 430.06 109.5 431.56 111.5L491.719 193.493L491.719 193.493C494.821 197.805 496.373 199.961 498.484 199.909C500.595 199.857 502.039 197.628 504.927 193.17L522.915 165.399C524.877 162.37 524.857 161.073 524.56 159.5C524.263 157.927 523.798 156.657 520.867 154.552L444.759 99.8889C440.979 97.1738 439.089 95.8163 437.229 96.3466ZM509.939 153.969C508.188 152.608 505.665 152.93 504.313 154.687L488.753 174.915C487.595 176.42 487.655 178.531 488.896 179.968L492.785 184.471C494.526 186.487 497.714 186.27 499.166 184.036L513.762 161.581C514.894 159.839 514.504 157.52 512.864 156.244L509.939 153.969Z" fill="#FF7300"/>
</svg>
