<svg width="512" height="512" viewBox="0 0 512 512" fill="none" xmlns="http://www.w3.org/2000/svg">
<rect width="512" height="512" rx="92" fill="white"/>
<path fill-rule="evenodd" clip-rule="evenodd" d="M94 137C94 116.258 94 105.887 100.444 99.4437C106.887 93 117.258 93 138 93H357.067C377.808 93 388.179 93 394.623 99.4437C401.067 105.887 401.067 116.258 401.067 137V237.056H337.454H159.28V252.22L159.28 324.516C159.28 331.696 165.1 337.516 172.28 337.516H324.454C331.634 337.516 337.454 331.696 337.454 324.516V252.22H401.067V356.067C401.067 376.808 401.067 387.179 394.623 393.623C388.179 400.067 377.808 400.067 357.067 400.067H138C117.258 400.067 106.887 400.067 100.444 393.623C94 387.179 94 376.808 94 356.067V137Z" fill="#FF7300"/>
<path fill-rule="evenodd" clip-rule="evenodd" d="M296.188 275.622C292.663 276.628 291.659 277.239 288.286 285.39L283.547 297.711C283.547 297.711 282.599 300.554 285.443 304.345L399.472 459.761C405.353 467.934 408.293 472.02 412.295 471.922C416.297 471.824 419.034 467.599 424.508 459.148L458.603 406.51C462.322 400.769 462.285 398.309 461.722 395.328C461.159 392.346 460.277 389.94 454.722 385.95L310.461 282.337C303.296 277.19 299.713 274.617 296.188 275.622ZM431.165 382.633C429.415 381.272 426.891 381.594 425.539 383.352L392.07 426.861C390.912 428.366 390.972 430.478 392.213 431.915L404.609 446.268C406.35 448.284 409.538 448.066 410.99 445.833L443.047 396.514C444.18 394.771 443.79 392.452 442.149 391.176L431.165 382.633Z" fill="#FF7300"/>
</svg>
